 
http://www.imdb.com/title/tt1300854/


[b]Marvel's "Iron Man 3" pits brash-but-brilliant industrialist Tony Stark/Iron Man against an enemy whose reach knows no bounds. When Stark finds his personal world destroyed at his enemy's hands, he embarks on a harrowing quest to find those responsible. This journey, at every turn, will test his mettle. With his back against the wall, Stark is left to survive by his own devices, relying on his ingenuity and instincts to protect those closest to him. As he fights his way back, Stark discovers the answer to the question that has secretly haunted him: does the man make the suit or does the suit make the man? 



Director:
 Shane Black 

Writers:
 Drew Pearce (screenplay), Shane Black (screenplay)

Stars:
 Robert Downey Jr., Gwyneth Paltrow, Guy Pearce

Genres:
  Action |  Sci-Fi |  Thriller 

Country:
 USA | China 

Language:
 English 
[/b]



Source - Iron Man 3 2013 R6 LiNE READNFO XViD - JUSTiCE

 NOTES - Enjoy.

 General
 Complete name                            : Iron Man 3 2013 R6 LiNE AAC x264-SSDD.mp4
 Format                                   : MPEG-4
 Format profile                           : Base Media
 Codec ID                                 : isom
 File size                                : 600 MiB
 Duration                                 : 2h 8mn
 Overall bit rate mode                    : Variable
 Overall bit rate                         : 652 Kbps

 Video
 ID                                       : 1
 Format                                   : AVC
 Format/Info                              : Advanced Video Codec
 Format profile                           : High@L4.1
 Format settings, CABAC                   : Yes
 Format settings, ReFrames                : 4 frames
 Codec ID                                 : avc1
 Codec ID/Info                            : Advanced Video Coding
 Duration                                 : 2h 8mn
 Bit rate                                 : 584 Kbps
 Maximum bit rate                         : 2 050 Kbps
 Width                                    : 720 pixels
 Height                                   : 304 pixels
 Display aspect ratio                     : 2.35:1
 Frame rate mode                          : Constant
 Frame rate                               : 29.970 fps
 Color space                              : YUV
 Chroma subsampling                       : 4:2:0
 Bit depth                                : 8 bits
 Scan type                                : Progressive
 Bits/(Pixel*Frame)                       : 0.089
 Stream size                              : 538 MiB (90%)
 Writing library                          : x264 core 130 r2273 b3065e6

 Audio
 ID                                       : 2
 Format                                   : AAC
 Format/Info                              : Advanced Audio Codec
 Format profile                           : LC
 Codec ID                                 : 40
 Duration                                 : 2h 8mn
 Bit rate mode                            : Variable
 Bit rate                                 : 64.0 Kbps
 Maximum bit rate                         : 68.3 Kbps
 Channel(s)                               : 2 channels
 Channel positions                        : Front: L R
 Sampling rate                            : 48.0 KHz
 Compression mode                         : Lossy
 Stream size                              : 59.0 MiB (10%)



    	http://addpix.net/viewer.php?file=34784425223819477023.jpg
    	http://addpix.net/viewer.php?file=83427805534685447685.jpg
    	http://addpix.net/viewer.php?file=34119802363960744570.jpg
    	http://addpix.net/viewer.php?file=24539151282094112870.jpg
    	http://addpix.net/viewer.php?file=71286658094066323407.jpg
    	http://addpix.net/viewer.php?file=21764063312121348296.jpg